<?xml version="1.0" encoding="utf-8" standalone="no"?>
<!DOCTYPE svg PUBLIC "-//W3C//DTD SVG 1.1//EN"
  "http://www.w3.org/Graphics/SVG/1.1/DTD/svg11.dtd">
<!-- Created with matplotlib (https://matplotlib.org/) -->
<svg height="504pt" version="1.1" viewBox="0 0 1080 504" width="1080pt" xmlns="http://www.w3.org/2000/svg" xmlns:xlink="http://www.w3.org/1999/xlink">
 <defs>
  <style type="text/css">
*{stroke-linecap:butt;stroke-linejoin:round;}
  </style>
 </defs>
 <g id="figure_1">
  <g id="patch_1">
   <path d="M 0 504 
L 1080 504 
L 1080 0 
L 0 0 
z
" style="fill:#ffffff;"/>
  </g>
  <g id="axes_1">
   <g id="patch_2">
    <path d="M 135 441 
L 972 441 
L 972 60.48 
L 135 60.48 
z
" style="fill:#e5e5e5;"/>
   </g>
   <g id="matplotlib.axis_1">
    <g id="xtick_1">
     <g id="line2d_1">
      <path clip-path="url(#pc02a6dbbf5)" d="M 173.045455 441 
L 173.045455 60.48 
" style="fill:none;stroke:#ffffff;stroke-linecap:square;stroke-width:0.8;"/>
     </g>
     <g id="line2d_2">
      <defs>
       <path d="M 0 0 
L 0 3.5 
" id="m78cd13d25d" style="stroke:#555555;stroke-width:0.8;"/>
      </defs>
      <g>
       <use style="fill:#555555;stroke:#555555;stroke-width:0.8;" x="173.045455" xlink:href="#m78cd13d25d" y="441"/>
      </g>
     </g>
     <g id="text_1">
      <!-- 0 -->
      <defs>
       <path d="M 31.78125 66.40625 
Q 24.171875 66.40625 20.328125 58.90625 
Q 16.5 51.421875 16.5 36.375 
Q 16.5 21.390625 20.328125 13.890625 
Q 24.171875 6.390625 31.78125 6.390625 
Q 39.453125 6.390625 43.28125 13.890625 
Q 47.125 21.390625 47.125 36.375 
Q 47.125 51.421875 43.28125 58.90625 
Q 39.453125 66.40625 31.78125 66.40625 
z
M 31.78125 74.21875 
Q 44.046875 74.21875 50.515625 64.515625 
Q 56.984375 54.828125 56.984375 36.375 
Q 56.984375 17.96875 50.515625 8.265625 
Q 44.046875 -1.421875 31.78125 -1.421875 
Q 19.53125 -1.421875 13.0625 8.265625 
Q 6.59375 17.96875 6.59375 36.375 
Q 6.59375 54.828125 13.0625 64.515625 
Q 19.53125 74.21875 31.78125 74.21875 
z
" id="DejaVuSans-48"/>
      </defs>
      <g style="fill:#555555;" transform="translate(169.864205 455.598437)scale(0.1 -0.1)">
       <use xlink:href="#DejaVuSans-48"/>
      </g>
     </g>
    </g>
    <g id="xtick_2">
     <g id="line2d_3">
      <path clip-path="url(#pc02a6dbbf5)" d="M 325.379607 441 
L 325.379607 60.48 
" style="fill:none;stroke:#ffffff;stroke-linecap:square;stroke-width:0.8;"/>
     </g>
     <g id="line2d_4">
      <g>
       <use style="fill:#555555;stroke:#555555;stroke-width:0.8;" x="325.379607" xlink:href="#m78cd13d25d" y="441"/>
      </g>
     </g>
     <g id="text_2">
      <!-- 20 -->
      <defs>
       <path d="M 19.1875 8.296875 
L 53.609375 8.296875 
L 53.609375 0 
L 7.328125 0 
L 7.328125 8.296875 
Q 12.9375 14.109375 22.625 23.890625 
Q 32.328125 33.6875 34.8125 36.53125 
Q 39.546875 41.84375 41.421875 45.53125 
Q 43.3125 49.21875 43.3125 52.78125 
Q 43.3125 58.59375 39.234375 62.25 
Q 35.15625 65.921875 28.609375 65.921875 
Q 23.96875 65.921875 18.8125 64.3125 
Q 13.671875 62.703125 7.8125 59.421875 
L 7.8125 69.390625 
Q 13.765625 71.78125 18.9375 73 
Q 24.125 74.21875 28.421875 74.21875 
Q 39.75 74.21875 46.484375 68.546875 
Q 53.21875 62.890625 53.21875 53.421875 
Q 53.21875 48.921875 51.53125 44.890625 
Q 49.859375 40.875 45.40625 35.40625 
Q 44.1875 33.984375 37.640625 27.21875 
Q 31.109375 20.453125 19.1875 8.296875 
z
" id="DejaVuSans-50"/>
      </defs>
      <g style="fill:#555555;" transform="translate(319.017107 455.598437)scale(0.1 -0.1)">
       <use xlink:href="#DejaVuSans-50"/>
       <use x="63.623047" xlink:href="#DejaVuSans-48"/>
      </g>
     </g>
    </g>
    <g id="xtick_3">
     <g id="line2d_5">
      <path clip-path="url(#pc02a6dbbf5)" d="M 477.713759 441 
L 477.713759 60.48 
" style="fill:none;stroke:#ffffff;stroke-linecap:square;stroke-width:0.8;"/>
     </g>
     <g id="line2d_6">
      <g>
       <use style="fill:#555555;stroke:#555555;stroke-width:0.8;" x="477.713759" xlink:href="#m78cd13d25d" y="441"/>
      </g>
     </g>
     <g id="text_3">
      <!-- 40 -->
      <defs>
       <path d="M 37.796875 64.3125 
L 12.890625 25.390625 
L 37.796875 25.390625 
z
M 35.203125 72.90625 
L 47.609375 72.90625 
L 47.609375 25.390625 
L 58.015625 25.390625 
L 58.015625 17.1875 
L 47.609375 17.1875 
L 47.609375 0 
L 37.796875 0 
L 37.796875 17.1875 
L 4.890625 17.1875 
L 4.890625 26.703125 
z
" id="DejaVuSans-52"/>
      </defs>
      <g style="fill:#555555;" transform="translate(471.351259 455.598437)scale(0.1 -0.1)">
       <use xlink:href="#DejaVuSans-52"/>
       <use x="63.623047" xlink:href="#DejaVuSans-48"/>
      </g>
     </g>
    </g>
    <g id="xtick_4">
     <g id="line2d_7">
      <path clip-path="url(#pc02a6dbbf5)" d="M 630.047912 441 
L 630.047912 60.48 
" style="fill:none;stroke:#ffffff;stroke-linecap:square;stroke-width:0.8;"/>
     </g>
     <g id="line2d_8">
      <g>
       <use style="fill:#555555;stroke:#555555;stroke-width:0.8;" x="630.047912" xlink:href="#m78cd13d25d" y="441"/>
      </g>
     </g>
     <g id="text_4">
      <!-- 60 -->
      <defs>
       <path d="M 33.015625 40.375 
Q 26.375 40.375 22.484375 35.828125 
Q 18.609375 31.296875 18.609375 23.390625 
Q 18.609375 15.53125 22.484375 10.953125 
Q 26.375 6.390625 33.015625 6.390625 
Q 39.65625 6.390625 43.53125 10.953125 
Q 47.40625 15.53125 47.40625 23.390625 
Q 47.40625 31.296875 43.53125 35.828125 
Q 39.65625 40.375 33.015625 40.375 
z
M 52.59375 71.296875 
L 52.59375 62.3125 
Q 48.875 64.0625 45.09375 64.984375 
Q 41.3125 65.921875 37.59375 65.921875 
Q 27.828125 65.921875 22.671875 59.328125 
Q 17.53125 52.734375 16.796875 39.40625 
Q 19.671875 43.65625 24.015625 45.921875 
Q 28.375 48.1875 33.59375 48.1875 
Q 44.578125 48.1875 50.953125 41.515625 
Q 57.328125 34.859375 57.328125 23.390625 
Q 57.328125 12.15625 50.6875 5.359375 
Q 44.046875 -1.421875 33.015625 -1.421875 
Q 20.359375 -1.421875 13.671875 8.265625 
Q 6.984375 17.96875 6.984375 36.375 
Q 6.984375 53.65625 15.1875 63.9375 
Q 23.390625 74.21875 37.203125 74.21875 
Q 40.921875 74.21875 44.703125 73.484375 
Q 48.484375 72.75 52.59375 71.296875 
z
" id="DejaVuSans-54"/>
      </defs>
      <g style="fill:#555555;" transform="translate(623.685412 455.598437)scale(0.1 -0.1)">
       <use xlink:href="#DejaVuSans-54"/>
       <use x="63.623047" xlink:href="#DejaVuSans-48"/>
      </g>
     </g>
    </g>
    <g id="xtick_5">
     <g id="line2d_9">
      <path clip-path="url(#pc02a6dbbf5)" d="M 782.382064 441 
L 782.382064 60.48 
" style="fill:none;stroke:#ffffff;stroke-linecap:square;stroke-width:0.8;"/>
     </g>
     <g id="line2d_10">
      <g>
       <use style="fill:#555555;stroke:#555555;stroke-width:0.8;" x="782.382064" xlink:href="#m78cd13d25d" y="441"/>
      </g>
     </g>
     <g id="text_5">
      <!-- 80 -->
      <defs>
       <path d="M 31.78125 34.625 
Q 24.75 34.625 20.71875 30.859375 
Q 16.703125 27.09375 16.703125 20.515625 
Q 16.703125 13.921875 20.71875 10.15625 
Q 24.75 6.390625 31.78125 6.390625 
Q 38.8125 6.390625 42.859375 10.171875 
Q 46.921875 13.96875 46.921875 20.515625 
Q 46.921875 27.09375 42.890625 30.859375 
Q 38.875 34.625 31.78125 34.625 
z
M 21.921875 38.8125 
Q 15.578125 40.375 12.03125 44.71875 
Q 8.5 49.078125 8.5 55.328125 
Q 8.5 64.0625 14.71875 69.140625 
Q 20.953125 74.21875 31.78125 74.21875 
Q 42.671875 74.21875 48.875 69.140625 
Q 55.078125 64.0625 55.078125 55.328125 
Q 55.078125 49.078125 51.53125 44.71875 
Q 48 40.375 41.703125 38.8125 
Q 48.828125 37.15625 52.796875 32.3125 
Q 56.78125 27.484375 56.78125 20.515625 
Q 56.78125 9.90625 50.3125 4.234375 
Q 43.84375 -1.421875 31.78125 -1.421875 
Q 19.734375 -1.421875 13.25 4.234375 
Q 6.78125 9.90625 6.78125 20.515625 
Q 6.78125 27.484375 10.78125 32.3125 
Q 14.796875 37.15625 21.921875 38.8125 
z
M 18.3125 54.390625 
Q 18.3125 48.734375 21.84375 45.5625 
Q 25.390625 42.390625 31.78125 42.390625 
Q 38.140625 42.390625 41.71875 45.5625 
Q 45.3125 48.734375 45.3125 54.390625 
Q 45.3125 60.0625 41.71875 63.234375 
Q 38.140625 66.40625 31.78125 66.40625 
Q 25.390625 66.40625 21.84375 63.234375 
Q 18.3125 60.0625 18.3125 54.390625 
z
" id="DejaVuSans-56"/>
      </defs>
      <g style="fill:#555555;" transform="translate(776.019564 455.598437)scale(0.1 -0.1)">
       <use xlink:href="#DejaVuSans-56"/>
       <use x="63.623047" xlink:href="#DejaVuSans-48"/>
      </g>
     </g>
    </g>
    <g id="xtick_6">
     <g id="line2d_11">
      <path clip-path="url(#pc02a6dbbf5)" d="M 934.716216 441 
L 934.716216 60.48 
" style="fill:none;stroke:#ffffff;stroke-linecap:square;stroke-width:0.8;"/>
     </g>
     <g id="line2d_12">
      <g>
       <use style="fill:#555555;stroke:#555555;stroke-width:0.8;" x="934.716216" xlink:href="#m78cd13d25d" y="441"/>
      </g>
     </g>
     <g id="text_6">
      <!-- 100 -->
      <defs>
       <path d="M 12.40625 8.296875 
L 28.515625 8.296875 
L 28.515625 63.921875 
L 10.984375 60.40625 
L 10.984375 69.390625 
L 28.421875 72.90625 
L 38.28125 72.90625 
L 38.28125 8.296875 
L 54.390625 8.296875 
L 54.390625 0 
L 12.40625 0 
z
" id="DejaVuSans-49"/>
      </defs>
      <g style="fill:#555555;" transform="translate(925.172466 455.598437)scale(0.1 -0.1)">
       <use xlink:href="#DejaVuSans-49"/>
       <use x="63.623047" xlink:href="#DejaVuSans-48"/>
       <use x="127.246094" xlink:href="#DejaVuSans-48"/>
      </g>
     </g>
    </g>
    <g id="text_7">
     <!-- time -->
     <defs>
      <path d="M 18.3125 70.21875 
L 18.3125 54.6875 
L 36.8125 54.6875 
L 36.8125 47.703125 
L 18.3125 47.703125 
L 18.3125 18.015625 
Q 18.3125 11.328125 20.140625 9.421875 
Q 21.96875 7.515625 27.59375 7.515625 
L 36.8125 7.515625 
L 36.8125 0 
L 27.59375 0 
Q 17.1875 0 13.234375 3.875 
Q 9.28125 7.765625 9.28125 18.015625 
L 9.28125 47.703125 
L 2.6875 47.703125 
L 2.6875 54.6875 
L 9.28125 54.6875 
L 9.28125 70.21875 
z
" id="DejaVuSans-116"/>
      <path d="M 9.421875 54.6875 
L 18.40625 54.6875 
L 18.40625 0 
L 9.421875 0 
z
M 9.421875 75.984375 
L 18.40625 75.984375 
L 18.40625 64.59375 
L 9.421875 64.59375 
z
" id="DejaVuSans-105"/>
      <path d="M 52 44.1875 
Q 55.375 50.25 60.0625 53.125 
Q 64.75 56 71.09375 56 
Q 79.640625 56 84.28125 50.015625 
Q 88.921875 44.046875 88.921875 33.015625 
L 88.921875 0 
L 79.890625 0 
L 79.890625 32.71875 
Q 79.890625 40.578125 77.09375 44.375 
Q 74.3125 48.1875 68.609375 48.1875 
Q 61.625 48.1875 57.5625 43.546875 
Q 53.515625 38.921875 53.515625 30.90625 
L 53.515625 0 
L 44.484375 0 
L 44.484375 32.71875 
Q 44.484375 40.625 41.703125 44.40625 
Q 38.921875 48.1875 33.109375 48.1875 
Q 26.21875 48.1875 22.15625 43.53125 
Q 18.109375 38.875 18.109375 30.90625 
L 18.109375 0 
L 9.078125 0 
L 9.078125 54.6875 
L 18.109375 54.6875 
L 18.109375 46.1875 
Q 21.1875 51.21875 25.484375 53.609375 
Q 29.78125 56 35.6875 56 
Q 41.65625 56 45.828125 52.96875 
Q 50 49.953125 52 44.1875 
z
" id="DejaVuSans-109"/>
      <path d="M 56.203125 29.59375 
L 56.203125 25.203125 
L 14.890625 25.203125 
Q 15.484375 15.921875 20.484375 11.0625 
Q 25.484375 6.203125 34.421875 6.203125 
Q 39.59375 6.203125 44.453125 7.46875 
Q 49.3125 8.734375 54.109375 11.28125 
L 54.109375 2.78125 
Q 49.265625 0.734375 44.1875 -0.34375 
Q 39.109375 -1.421875 33.890625 -1.421875 
Q 20.796875 -1.421875 13.15625 6.1875 
Q 5.515625 13.8125 5.515625 26.8125 
Q 5.515625 40.234375 12.765625 48.109375 
Q 20.015625 56 32.328125 56 
Q 43.359375 56 49.78125 48.890625 
Q 56.203125 41.796875 56.203125 29.59375 
z
M 47.21875 32.234375 
Q 47.125 39.59375 43.09375 43.984375 
Q 39.0625 48.390625 32.421875 48.390625 
Q 24.90625 48.390625 20.390625 44.140625 
Q 15.875 39.890625 15.1875 32.171875 
z
" id="DejaVuSans-101"/>
     </defs>
     <g style="fill:#555555;" transform="translate(537.685469 472.315938)scale(0.14 -0.14)">
      <use xlink:href="#DejaVuSans-116"/>
      <use x="39.208984" xlink:href="#DejaVuSans-105"/>
      <use x="66.992188" xlink:href="#DejaVuSans-109"/>
      <use x="164.404297" xlink:href="#DejaVuSans-101"/>
     </g>
    </g>
   </g>
   <g id="matplotlib.axis_2">
    <g id="ytick_1">
     <g id="line2d_13">
      <path clip-path="url(#pc02a6dbbf5)" d="M 135 419.651358 
L 972 419.651358 
" style="fill:none;stroke:#ffffff;stroke-linecap:square;stroke-width:0.8;"/>
     </g>
     <g id="line2d_14">
      <defs>
       <path d="M 0 0 
L -3.5 0 
" id="m06623da7d8" style="stroke:#555555;stroke-width:0.8;"/>
      </defs>
      <g>
       <use style="fill:#555555;stroke:#555555;stroke-width:0.8;" x="135" xlink:href="#m06623da7d8" y="419.651358"/>
      </g>
     </g>
     <g id="text_8">
      <!-- −2.0 -->
      <defs>
       <path d="M 10.59375 35.5 
L 73.1875 35.5 
L 73.1875 27.203125 
L 10.59375 27.203125 
z
" id="DejaVuSans-8722"/>
       <path d="M 10.6875 12.40625 
L 21 12.40625 
L 21 0 
L 10.6875 0 
z
" id="DejaVuSans-46"/>
      </defs>
      <g style="fill:#555555;" transform="translate(103.717187 423.450576)scale(0.1 -0.1)">
       <use xlink:href="#DejaVuSans-8722"/>
       <use x="83.789062" xlink:href="#DejaVuSans-50"/>
       <use x="147.412109" xlink:href="#DejaVuSans-46"/>
       <use x="179.199219" xlink:href="#DejaVuSans-48"/>
      </g>
     </g>
    </g>
    <g id="ytick_2">
     <g id="line2d_15">
      <path clip-path="url(#pc02a6dbbf5)" d="M 135 375.428592 
L 972 375.428592 
" style="fill:none;stroke:#ffffff;stroke-linecap:square;stroke-width:0.8;"/>
     </g>
     <g id="line2d_16">
      <g>
       <use style="fill:#555555;stroke:#555555;stroke-width:0.8;" x="135" xlink:href="#m06623da7d8" y="375.428592"/>
      </g>
     </g>
     <g id="text_9">
      <!-- −1.5 -->
      <defs>
       <path d="M 10.796875 72.90625 
L 49.515625 72.90625 
L 49.515625 64.59375 
L 19.828125 64.59375 
L 19.828125 46.734375 
Q 21.96875 47.46875 24.109375 47.828125 
Q 26.265625 48.1875 28.421875 48.1875 
Q 40.625 48.1875 47.75 41.5 
Q 54.890625 34.8125 54.890625 23.390625 
Q 54.890625 11.625 47.5625 5.09375 
Q 40.234375 -1.421875 26.90625 -1.421875 
Q 22.3125 -1.421875 17.546875 -0.640625 
Q 12.796875 0.140625 7.71875 1.703125 
L 7.71875 11.625 
Q 12.109375 9.234375 16.796875 8.0625 
Q 21.484375 6.890625 26.703125 6.890625 
Q 35.15625 6.890625 40.078125 11.328125 
Q 45.015625 15.765625 45.015625 23.390625 
Q 45.015625 31 40.078125 35.4375 
Q 35.15625 39.890625 26.703125 39.890625 
Q 22.75 39.890625 18.8125 39.015625 
Q 14.890625 38.140625 10.796875 36.28125 
z
" id="DejaVuSans-53"/>
      </defs>
      <g style="fill:#555555;" transform="translate(103.717187 379.227811)scale(0.1 -0.1)">
       <use xlink:href="#DejaVuSans-8722"/>
       <use x="83.789062" xlink:href="#DejaVuSans-49"/>
       <use x="147.412109" xlink:href="#DejaVuSans-46"/>
       <use x="179.199219" xlink:href="#DejaVuSans-53"/>
      </g>
     </g>
    </g>
    <g id="ytick_3">
     <g id="line2d_17">
      <path clip-path="url(#pc02a6dbbf5)" d="M 135 331.205826 
L 972 331.205826 
" style="fill:none;stroke:#ffffff;stroke-linecap:square;stroke-width:0.8;"/>
     </g>
     <g id="line2d_18">
      <g>
       <use style="fill:#555555;stroke:#555555;stroke-width:0.8;" x="135" xlink:href="#m06623da7d8" y="331.205826"/>
      </g>
     </g>
     <g id="text_10">
      <!-- −1.0 -->
      <g style="fill:#555555;" transform="translate(103.717187 335.005045)scale(0.1 -0.1)">
       <use xlink:href="#DejaVuSans-8722"/>
       <use x="83.789062" xlink:href="#DejaVuSans-49"/>
       <use x="147.412109" xlink:href="#DejaVuSans-46"/>
       <use x="179.199219" xlink:href="#DejaVuSans-48"/>
      </g>
     </g>
    </g>
    <g id="ytick_4">
     <g id="line2d_19">
      <path clip-path="url(#pc02a6dbbf5)" d="M 135 286.98306 
L 972 286.98306 
" style="fill:none;stroke:#ffffff;stroke-linecap:square;stroke-width:0.8;"/>
     </g>
     <g id="line2d_20">
      <g>
       <use style="fill:#555555;stroke:#555555;stroke-width:0.8;" x="135" xlink:href="#m06623da7d8" y="286.98306"/>
      </g>
     </g>
     <g id="text_11">
      <!-- −0.5 -->
      <g style="fill:#555555;" transform="translate(103.717187 290.782279)scale(0.1 -0.1)">
       <use xlink:href="#DejaVuSans-8722"/>
       <use x="83.789062" xlink:href="#DejaVuSans-48"/>
       <use x="147.412109" xlink:href="#DejaVuSans-46"/>
       <use x="179.199219" xlink:href="#DejaVuSans-53"/>
      </g>
     </g>
    </g>
    <g id="ytick_5">
     <g id="line2d_21">
      <path clip-path="url(#pc02a6dbbf5)" d="M 135 242.760295 
L 972 242.760295 
" style="fill:none;stroke:#ffffff;stroke-linecap:square;stroke-width:0.8;"/>
     </g>
     <g id="line2d_22">
      <g>
       <use style="fill:#555555;stroke:#555555;stroke-width:0.8;" x="135" xlink:href="#m06623da7d8" y="242.760295"/>
      </g>
     </g>
     <g id="text_12">
      <!-- 0.0 -->
      <g style="fill:#555555;" transform="translate(112.096875 246.559513)scale(0.1 -0.1)">
       <use xlink:href="#DejaVuSans-48"/>
       <use x="63.623047" xlink:href="#DejaVuSans-46"/>
       <use x="95.410156" xlink:href="#DejaVuSans-48"/>
      </g>
     </g>
    </g>
    <g id="ytick_6">
     <g id="line2d_23">
      <path clip-path="url(#pc02a6dbbf5)" d="M 135 198.537529 
L 972 198.537529 
" style="fill:none;stroke:#ffffff;stroke-linecap:square;stroke-width:0.8;"/>
     </g>
     <g id="line2d_24">
      <g>
       <use style="fill:#555555;stroke:#555555;stroke-width:0.8;" x="135" xlink:href="#m06623da7d8" y="198.537529"/>
      </g>
     </g>
     <g id="text_13">
      <!-- 0.5 -->
      <g style="fill:#555555;" transform="translate(112.096875 202.336747)scale(0.1 -0.1)">
       <use xlink:href="#DejaVuSans-48"/>
       <use x="63.623047" xlink:href="#DejaVuSans-46"/>
       <use x="95.410156" xlink:href="#DejaVuSans-53"/>
      </g>
     </g>
    </g>
    <g id="ytick_7">
     <g id="line2d_25">
      <path clip-path="url(#pc02a6dbbf5)" d="M 135 154.314763 
L 972 154.314763 
" style="fill:none;stroke:#ffffff;stroke-linecap:square;stroke-width:0.8;"/>
     </g>
     <g id="line2d_26">
      <g>
       <use style="fill:#555555;stroke:#555555;stroke-width:0.8;" x="135" xlink:href="#m06623da7d8" y="154.314763"/>
      </g>
     </g>
     <g id="text_14">
      <!-- 1.0 -->
      <g style="fill:#555555;" transform="translate(112.096875 158.113982)scale(0.1 -0.1)">
       <use xlink:href="#DejaVuSans-49"/>
       <use x="63.623047" xlink:href="#DejaVuSans-46"/>
       <use x="95.410156" xlink:href="#DejaVuSans-48"/>
      </g>
     </g>
    </g>
    <g id="ytick_8">
     <g id="line2d_27">
      <path clip-path="url(#pc02a6dbbf5)" d="M 135 110.091997 
L 972 110.091997 
" style="fill:none;stroke:#ffffff;stroke-linecap:square;stroke-width:0.8;"/>
     </g>
     <g id="line2d_28">
      <g>
       <use style="fill:#555555;stroke:#555555;stroke-width:0.8;" x="135" xlink:href="#m06623da7d8" y="110.091997"/>
      </g>
     </g>
     <g id="text_15">
      <!-- 1.5 -->
      <g style="fill:#555555;" transform="translate(112.096875 113.891216)scale(0.1 -0.1)">
       <use xlink:href="#DejaVuSans-49"/>
       <use x="63.623047" xlink:href="#DejaVuSans-46"/>
       <use x="95.410156" xlink:href="#DejaVuSans-53"/>
      </g>
     </g>
    </g>
    <g id="ytick_9">
     <g id="line2d_29">
      <path clip-path="url(#pc02a6dbbf5)" d="M 135 65.869231 
L 972 65.869231 
" style="fill:none;stroke:#ffffff;stroke-linecap:square;stroke-width:0.8;"/>
     </g>
     <g id="line2d_30">
      <g>
       <use style="fill:#555555;stroke:#555555;stroke-width:0.8;" x="135" xlink:href="#m06623da7d8" y="65.869231"/>
      </g>
     </g>
     <g id="text_16">
      <!-- 2.0 -->
      <g style="fill:#555555;" transform="translate(112.096875 69.66845)scale(0.1 -0.1)">
       <use xlink:href="#DejaVuSans-50"/>
       <use x="63.623047" xlink:href="#DejaVuSans-46"/>
       <use x="95.410156" xlink:href="#DejaVuSans-48"/>
      </g>
     </g>
    </g>
    <g id="text_17">
     <!-- u(t) -->
     <defs>
      <path d="M 8.5 21.578125 
L 8.5 54.6875 
L 17.484375 54.6875 
L 17.484375 21.921875 
Q 17.484375 14.15625 20.5 10.265625 
Q 23.53125 6.390625 29.59375 6.390625 
Q 36.859375 6.390625 41.078125 11.03125 
Q 45.3125 15.671875 45.3125 23.6875 
L 45.3125 54.6875 
L 54.296875 54.6875 
L 54.296875 0 
L 45.3125 0 
L 45.3125 8.40625 
Q 42.046875 3.421875 37.71875 1 
Q 33.40625 -1.421875 27.6875 -1.421875 
Q 18.265625 -1.421875 13.375 4.4375 
Q 8.5 10.296875 8.5 21.578125 
z
M 31.109375 56 
z
" id="DejaVuSans-117"/>
      <path d="M 31 75.875 
Q 24.46875 64.65625 21.28125 53.65625 
Q 18.109375 42.671875 18.109375 31.390625 
Q 18.109375 20.125 21.3125 9.0625 
Q 24.515625 -2 31 -13.1875 
L 23.1875 -13.1875 
Q 15.875 -1.703125 12.234375 9.375 
Q 8.59375 20.453125 8.59375 31.390625 
Q 8.59375 42.28125 12.203125 53.3125 
Q 15.828125 64.359375 23.1875 75.875 
z
" id="DejaVuSans-40"/>
      <path d="M 8.015625 75.875 
L 15.828125 75.875 
Q 23.140625 64.359375 26.78125 53.3125 
Q 30.421875 42.28125 30.421875 31.390625 
Q 30.421875 20.453125 26.78125 9.375 
Q 23.140625 -1.703125 15.828125 -13.1875 
L 8.015625 -13.1875 
Q 14.5 -2 17.703125 9.0625 
Q 20.90625 20.125 20.90625 31.390625 
Q 20.90625 42.671875 17.703125 53.65625 
Q 14.5 64.65625 8.015625 75.875 
z
" id="DejaVuSans-41"/>
     </defs>
     <g style="fill:#555555;" transform="translate(96.805625 263.382656)rotate(-90)scale(0.14 -0.14)">
      <use xlink:href="#DejaVuSans-117"/>
      <use x="63.378906" xlink:href="#DejaVuSans-40"/>
      <use x="102.392578" xlink:href="#DejaVuSans-116"/>
      <use x="141.601562" xlink:href="#DejaVuSans-41"/>
     </g>
    </g>
   </g>
   <g id="PathCollection_1">
    <defs>
     <path d="M 0 3 
C 0.795609 3 1.55874 2.683901 2.12132 2.12132 
C 2.683901 1.55874 3 0.795609 3 0 
C 3 -0.795609 2.683901 -1.55874 2.12132 -2.12132 
C 1.55874 -2.683901 0.795609 -3 0 -3 
C -0.795609 -3 -1.55874 -2.683901 -2.12132 -2.12132 
C -2.683901 -1.55874 -3 -0.795609 -3 0 
C -3 0.795609 -2.683901 1.55874 -2.12132 2.12132 
C -1.55874 2.683901 -0.795609 3 0 3 
z
" id="m4a92e69167" style="stroke:#ff0000;stroke-width:0.5;"/>
    </defs>
    <g clip-path="url(#pc02a6dbbf5)">
     <use style="fill:#ff0000;stroke:#ff0000;stroke-width:0.5;" x="173.045455" xlink:href="#m4a92e69167" y="242.760295"/>
     <use style="fill:#ff0000;stroke:#ff0000;stroke-width:0.5;" x="173.045455" xlink:href="#m4a92e69167" y="242.760295"/>
     <use style="fill:#ff0000;stroke:#ff0000;stroke-width:0.5;" x="211.128993" xlink:href="#m4a92e69167" y="95.950277"/>
     <use style="fill:#ff0000;stroke:#ff0000;stroke-width:0.5;" x="211.128993" xlink:href="#m4a92e69167" y="179.48167"/>
     <use style="fill:#ff0000;stroke:#ff0000;stroke-width:0.5;" x="249.212531" xlink:href="#m4a92e69167" y="137.584061"/>
     <use style="fill:#ff0000;stroke:#ff0000;stroke-width:0.5;" x="249.212531" xlink:href="#m4a92e69167" y="132.113413"/>
     <use style="fill:#ff0000;stroke:#ff0000;stroke-width:0.5;" x="287.296069" xlink:href="#m4a92e69167" y="337.220783"/>
     <use style="fill:#ff0000;stroke:#ff0000;stroke-width:0.5;" x="287.296069" xlink:href="#m4a92e69167" y="124.811966"/>
     <use style="fill:#ff0000;stroke:#ff0000;stroke-width:0.5;" x="325.379607" xlink:href="#m4a92e69167" y="401.397333"/>
     <use style="fill:#ff0000;stroke:#ff0000;stroke-width:0.5;" x="325.379607" xlink:href="#m4a92e69167" y="192.057546"/>
     <use style="fill:#ff0000;stroke:#ff0000;stroke-width:0.5;" x="363.463145" xlink:href="#m4a92e69167" y="376.819651"/>
     <use style="fill:#ff0000;stroke:#ff0000;stroke-width:0.5;" x="363.463145" xlink:href="#m4a92e69167" y="234.803228"/>
     <use style="fill:#ff0000;stroke:#ff0000;stroke-width:0.5;" x="401.546683" xlink:href="#m4a92e69167" y="352.024042"/>
     <use style="fill:#ff0000;stroke:#ff0000;stroke-width:0.5;" x="401.546683" xlink:href="#m4a92e69167" y="257.396071"/>
     <use style="fill:#ff0000;stroke:#ff0000;stroke-width:0.5;" x="439.630221" xlink:href="#m4a92e69167" y="321.590215"/>
     <use style="fill:#ff0000;stroke:#ff0000;stroke-width:0.5;" x="439.630221" xlink:href="#m4a92e69167" y="264.607805"/>
     <use style="fill:#ff0000;stroke:#ff0000;stroke-width:0.5;" x="477.713759" xlink:href="#m4a92e69167" y="158.644643"/>
     <use style="fill:#ff0000;stroke:#ff0000;stroke-width:0.5;" x="477.713759" xlink:href="#m4a92e69167" y="248.480356"/>
     <use style="fill:#ff0000;stroke:#ff0000;stroke-width:0.5;" x="515.797297" xlink:href="#m4a92e69167" y="99.188005"/>
     <use style="fill:#ff0000;stroke:#ff0000;stroke-width:0.5;" x="515.797297" xlink:href="#m4a92e69167" y="173.837342"/>
     <use style="fill:#ff0000;stroke:#ff0000;stroke-width:0.5;" x="553.880835" xlink:href="#m4a92e69167" y="142.676448"/>
     <use style="fill:#ff0000;stroke:#ff0000;stroke-width:0.5;" x="553.880835" xlink:href="#m4a92e69167" y="129.356063"/>
     <use style="fill:#ff0000;stroke:#ff0000;stroke-width:0.5;" x="591.964373" xlink:href="#m4a92e69167" y="390.407229"/>
     <use style="fill:#ff0000;stroke:#ff0000;stroke-width:0.5;" x="591.964373" xlink:href="#m4a92e69167" y="130.192696"/>
     <use style="fill:#ff0000;stroke:#ff0000;stroke-width:0.5;" x="630.047912" xlink:href="#m4a92e69167" y="399.126934"/>
     <use style="fill:#ff0000;stroke:#ff0000;stroke-width:0.5;" x="630.047912" xlink:href="#m4a92e69167" y="196.96687"/>
     <use style="fill:#ff0000;stroke:#ff0000;stroke-width:0.5;" x="668.13145" xlink:href="#m4a92e69167" y="374.603025"/>
     <use style="fill:#ff0000;stroke:#ff0000;stroke-width:0.5;" x="668.13145" xlink:href="#m4a92e69167" y="237.597864"/>
     <use style="fill:#ff0000;stroke:#ff0000;stroke-width:0.5;" x="706.214988" xlink:href="#m4a92e69167" y="349.653383"/>
     <use style="fill:#ff0000;stroke:#ff0000;stroke-width:0.5;" x="706.214988" xlink:href="#m4a92e69167" y="258.645604"/>
     <use style="fill:#ff0000;stroke:#ff0000;stroke-width:0.5;" x="744.298526" xlink:href="#m4a92e69167" y="317.753748"/>
     <use style="fill:#ff0000;stroke:#ff0000;stroke-width:0.5;" x="744.298526" xlink:href="#m4a92e69167" y="264.534545"/>
     <use style="fill:#ff0000;stroke:#ff0000;stroke-width:0.5;" x="782.382064" xlink:href="#m4a92e69167" y="112.350852"/>
     <use style="fill:#ff0000;stroke:#ff0000;stroke-width:0.5;" x="782.382064" xlink:href="#m4a92e69167" y="242.375271"/>
     <use style="fill:#ff0000;stroke:#ff0000;stroke-width:0.5;" x="820.465602" xlink:href="#m4a92e69167" y="102.504712"/>
     <use style="fill:#ff0000;stroke:#ff0000;stroke-width:0.5;" x="820.465602" xlink:href="#m4a92e69167" y="168.472573"/>
     <use style="fill:#ff0000;stroke:#ff0000;stroke-width:0.5;" x="858.54914" xlink:href="#m4a92e69167" y="148.272601"/>
     <use style="fill:#ff0000;stroke:#ff0000;stroke-width:0.5;" x="858.54914" xlink:href="#m4a92e69167" y="126.868134"/>
     <use style="fill:#ff0000;stroke:#ff0000;stroke-width:0.5;" x="896.632678" xlink:href="#m4a92e69167" y="414.002039"/>
     <use style="fill:#ff0000;stroke:#ff0000;stroke-width:0.5;" x="896.632678" xlink:href="#m4a92e69167" y="136.93851"/>
    </g>
   </g>
   <g id="line2d_31">
    <path clip-path="url(#pc02a6dbbf5)" d="M 173.045455 242.760295 
L 174.568796 233.523412 
L 176.092138 222.584561 
L 177.615479 209.700854 
L 179.138821 194.731808 
L 180.662162 177.781959 
L 185.993857 115.495667 
L 187.517199 102.719123 
L 188.27887 97.783669 
L 189.040541 93.786242 
L 189.802211 90.646116 
L 190.563882 88.257088 
L 191.325553 86.503813 
L 192.087224 85.274079 
L 192.848894 84.46637 
L 193.610565 83.993409 
L 194.372236 83.78285 
L 195.133907 83.776291 
L 195.895577 83.927477 
L 197.418919 84.566677 
L 198.94226 85.499384 
L 201.227273 87.204208 
L 205.035627 90.425857 
L 211.128993 95.950277 
L 218.7457 103.171172 
L 225.600737 109.973786 
L 231.694103 116.34063 
L 237.025799 122.244851 
L 241.595823 127.635237 
L 245.404177 132.430788 
L 249.212531 137.584061 
L 252.259214 142.036292 
L 255.305897 146.864236 
L 258.35258 152.175077 
L 260.637592 156.564158 
L 262.922604 161.397029 
L 265.207617 166.792682 
L 267.492629 172.914862 
L 269.015971 177.509832 
L 270.539312 182.618612 
L 272.062654 188.35736 
L 273.585995 194.875787 
L 275.109337 202.367747 
L 276.632678 211.084299 
L 278.15602 221.34807 
L 279.679361 233.564346 
L 281.202703 248.2162 
L 282.726044 265.813857 
L 284.249386 286.739692 
L 285.772727 310.907031 
L 289.581081 374.928203 
L 290.342752 385.345688 
L 291.104423 394.160906 
L 291.866093 401.284993 
L 292.627764 406.790955 
L 293.389435 410.868565 
L 294.151106 413.764805 
L 294.912776 415.73246 
L 295.674447 416.997734 
L 296.436118 417.746372 
L 297.197789 418.122389 
L 297.959459 418.233206 
L 298.72113 418.156906 
L 300.244472 417.649804 
L 302.529484 416.438043 
L 306.337838 414.019011 
L 342.898034 390.006922 
L 400.023342 353.055288 
L 409.163391 346.762191 
L 416.780098 341.26116 
L 422.873464 336.606684 
L 428.20516 332.267996 
L 432.775184 328.27482 
L 436.583538 324.685648 
L 440.391892 320.778806 
L 443.438575 317.353061 
L 446.485258 313.577312 
L 448.77027 310.452073 
L 451.055283 307.008169 
L 453.340295 303.164248 
L 455.625307 298.811454 
L 457.910319 293.801928 
L 459.433661 289.999729 
L 460.957002 285.737647 
L 462.480344 280.916391 
L 464.003686 275.410821 
L 465.527027 269.063139 
L 467.050369 261.675237 
L 468.57371 253.001591 
L 470.097052 242.7464 
L 471.620393 230.573357 
L 473.143735 216.145001 
L 474.667076 199.220563 
L 476.190418 179.847088 
L 480.760442 117.21242 
L 482.283784 101.179337 
L 483.045455 94.955136 
L 483.807125 89.9357 
L 484.568796 86.029311 
L 485.330467 83.096667 
L 486.092138 80.979077 
L 486.853808 79.520331 
L 487.615479 78.580121 
L 488.37715 78.040005 
L 489.138821 77.804246 
L 489.900491 77.797776 
L 490.662162 77.96298 
L 492.185504 78.645035 
L 493.708845 79.618059 
L 495.993857 81.359631 
L 499.802211 84.582347 
L 506.657248 90.707512 
L 515.035627 98.467377 
L 522.652334 105.814051 
L 528.7457 111.965605 
L 534.077396 117.6179 
L 539.409091 123.604907 
L 543.979115 129.089222 
L 547.787469 133.986206 
L 551.595823 139.270785 
L 554.642506 143.858089 
L 557.689189 148.858477 
L 559.974201 152.951655 
L 562.259214 157.414818 
L 564.544226 162.340963 
L 566.829238 167.856077 
L 569.114251 174.13416 
L 570.637592 178.860578 
L 572.160934 184.129944 
L 573.684275 190.066743 
L 575.207617 196.831674 
L 576.730958 204.632941 
L 578.2543 213.739885 
L 579.777641 224.497128 
L 581.300983 237.333055 
L 582.824324 252.746334 
L 584.347666 271.233826 
L 585.871007 293.092462 
L 588.15602 331.228132 
L 590.441032 369.787726 
L 591.964373 390.407229 
L 592.726044 398.291266 
L 593.487715 404.506588 
L 594.249386 409.197609 
L 595.011057 412.592856 
L 595.772727 414.947742 
L 596.534398 416.503136 
L 597.296069 417.463716 
L 598.05774 417.991875 
L 598.81941 418.210633 
L 599.581081 418.210343 
L 601.104423 417.793769 
L 602.627764 417.065837 
L 605.674447 415.232847 
L 613.291155 410.193641 
L 631.571253 398.131956 
L 652.898034 384.350826 
L 694.028256 357.856539 
L 705.453317 350.177454 
L 713.831695 344.294718 
L 720.686732 339.22886 
L 726.780098 334.442743 
L 731.350123 330.606467 
L 735.920147 326.478291 
L 739.728501 322.738298 
L 742.775184 319.486853 
L 745.821867 315.936105 
L 748.86855 311.997593 
L 751.153563 308.716441 
L 753.438575 305.077459 
L 755.723587 300.986253 
L 758.0086 296.315537 
L 759.531941 292.796239 
L 761.055283 288.876092 
L 762.578624 284.470963 
L 764.101966 279.475055 
L 765.625307 273.754967 
L 767.148649 267.142581 
L 768.67199 259.427359 
L 770.195332 250.349895 
L 771.718673 239.601409 
L 773.242015 226.839503 
L 774.765356 211.740216 
L 776.288698 194.118347 
L 777.812039 174.147736 
L 781.620393 121.401585 
L 783.143735 104.376618 
L 783.905405 97.600365 
L 784.667076 92.046899 
L 785.428747 87.655369 
L 786.190418 84.304179 
L 786.952088 81.84017 
L 787.713759 80.103849 
L 788.47543 78.946625 
L 789.237101 78.239877 
L 789.998771 77.877789 
L 790.760442 77.776364 
L 791.522113 77.870568 
L 793.045455 78.46023 
L 794.568796 79.38183 
L 796.853808 81.084998 
L 800.662162 84.2843 
L 807.517199 90.39647 
L 815.895577 98.144417 
L 823.512285 105.476508 
L 830.367322 112.40008 
L 835.699017 118.075436 
L 841.030713 124.093089 
L 845.600737 129.612366 
L 849.409091 134.547282 
L 853.217445 139.881205 
L 856.264128 144.519525 
L 859.310811 149.585389 
L 861.595823 153.740653 
L 863.880835 158.281001 
L 866.165848 163.304618 
L 868.45086 168.944987 
L 870.735872 175.38713 
L 872.259214 180.252309 
L 873.782555 185.69164 
L 875.305897 191.8386 
L 876.829238 198.865728 
L 878.35258 206.996622 
L 879.875921 216.520008 
L 881.399263 227.803232 
L 882.922604 241.296959 
L 884.445946 257.510389 
L 885.969287 276.912545 
L 887.492629 299.684411 
L 889.777641 338.569202 
L 891.300983 364.406939 
L 892.824324 386.313251 
L 893.585995 394.958505 
L 894.347666 401.91317 
L 895.109337 407.26457 
L 895.871007 411.210982 
L 896.632678 414.002039 
L 897.394349 415.888968 
L 898.15602 417.094245 
L 898.91769 417.799301 
L 899.679361 418.144152 
L 900.441032 418.232913 
L 901.202703 418.141107 
L 902.726044 417.615555 
L 905.011057 416.392223 
L 908.81941 413.968279 
L 933.954545 397.361717 
L 933.954545 397.361717 
" style="fill:none;stroke:#e24a33;stroke-linecap:square;stroke-width:1.5;"/>
   </g>
   <g id="line2d_32">
    <path clip-path="url(#pc02a6dbbf5)" d="M 173.045455 242.760295 
L 175.330467 241.174852 
L 177.615479 239.243094 
L 179.138821 237.715512 
L 180.662162 235.960473 
L 182.185504 233.950917 
L 183.708845 231.670983 
L 185.993857 227.760757 
L 188.27887 223.378882 
L 192.848894 213.986057 
L 198.18059 203.133408 
L 202.750614 194.318809 
L 207.320639 186.014137 
L 211.890663 178.216878 
L 216.460688 170.914843 
L 221.030713 164.0948 
L 225.600737 157.744502 
L 229.409091 152.803713 
L 233.217445 148.176701 
L 237.025799 143.859639 
L 240.834152 139.850185 
L 244.642506 136.147859 
L 248.45086 132.754593 
L 252.259214 129.675562 
L 256.067568 126.920452 
L 259.114251 124.960207 
L 262.160934 123.230155 
L 265.207617 121.748766 
L 268.2543 120.543163 
L 270.539312 119.843605 
L 272.824324 119.345981 
L 275.109337 119.084402 
L 277.394349 119.107202 
L 278.91769 119.313462 
L 280.441032 119.703721 
L 281.964373 120.31249 
L 283.487715 121.181959 
L 285.011057 122.360617 
L 286.534398 123.897269 
L 288.05774 125.827224 
L 289.581081 128.150992 
L 291.866093 132.249483 
L 295.674447 139.889892 
L 301.767813 152.118437 
L 306.337838 160.789213 
L 310.907862 168.992252 
L 315.477887 176.741486 
L 320.047912 184.054355 
L 324.617936 190.948145 
L 329.187961 197.439511 
L 333.757985 203.544428 
L 338.32801 209.278202 
L 342.898034 214.655486 
L 347.468059 219.6903 
L 352.038084 224.396042 
L 356.608108 228.78551 
L 361.178133 232.870904 
L 365.748157 236.663845 
L 370.318182 240.175373 
L 374.888206 243.415955 
L 379.458231 246.395478 
L 384.028256 249.123246 
L 388.59828 251.607962 
L 393.168305 253.857703 
L 397.738329 255.879887 
L 402.308354 257.681217 
L 406.878378 259.267608 
L 411.448403 260.644079 
L 416.018428 261.814603 
L 420.588452 262.781888 
L 425.158477 263.547064 
L 429.728501 264.109213 
L 434.298526 264.464667 
L 438.86855 264.605909 
L 443.438575 264.519802 
L 448.0086 264.184651 
L 451.816953 263.690177 
L 455.625307 262.966474 
L 458.67199 262.189894 
L 461.718673 261.197015 
L 464.765356 259.930976 
L 467.050369 258.751835 
L 469.335381 257.318976 
L 471.620393 255.560127 
L 473.143735 254.159721 
L 474.667076 252.537225 
L 476.190418 250.655437 
L 477.713759 248.480356 
L 479.237101 245.991451 
L 481.522113 241.692198 
L 483.807125 236.868943 
L 496.755528 208.490162 
L 501.325553 199.342871 
L 505.895577 190.730983 
L 510.465602 182.639808 
L 515.035627 175.053658 
L 519.605651 167.957744 
L 524.175676 161.338664 
L 527.984029 156.178483 
L 531.792383 151.335461 
L 535.600737 146.8049 
L 539.409091 142.583396 
L 543.217445 138.669133 
L 547.025799 135.06231 
L 550.834152 131.765757 
L 554.642506 128.785884 
L 558.45086 126.134146 
L 561.497543 124.26136 
L 564.544226 122.625112 
L 567.590909 121.246808 
L 570.637592 120.158053 
L 572.922604 119.559291 
L 575.207617 119.178642 
L 577.492629 119.056878 
L 579.015971 119.147306 
L 580.539312 119.401203 
L 582.062654 119.84785 
L 583.585995 120.523862 
L 585.109337 121.473435 
L 586.632678 122.746022 
L 588.15602 124.388475 
L 589.679361 126.428812 
L 591.202703 128.854271 
L 593.487715 133.059394 
L 598.05774 142.302623 
L 603.389435 152.933656 
L 607.959459 161.561299 
L 612.529484 169.721999 
L 617.099509 177.430458 
L 621.669533 184.704159 
L 626.239558 191.560338 
L 630.809582 198.015586 
L 635.379607 204.085818 
L 639.949631 209.786278 
L 644.519656 215.131562 
L 649.089681 220.135629 
L 653.659705 224.811825 
L 658.22973 229.17289 
L 662.799754 233.230973 
L 667.369779 236.997639 
L 671.939803 240.483877 
L 676.509828 243.700099 
L 681.079853 246.656142 
L 685.649877 249.361254 
L 690.219902 251.82408 
L 694.789926 254.052641 
L 699.359951 256.05429 
L 703.929975 257.835663 
L 708.5 259.402597 
L 713.070025 260.760021 
L 717.640049 261.911804 
L 722.210074 262.860523 
L 726.780098 263.607142 
L 731.350123 264.150526 
L 735.920147 264.486707 
L 740.490172 264.607737 
L 745.060197 264.499843 
L 749.630221 264.14033 
L 753.438575 263.622436 
L 757.246929 262.87086 
L 760.293612 262.067114 
L 763.340295 261.040535 
L 766.386978 259.730977 
L 768.67199 258.509714 
L 770.957002 257.023116 
L 773.242015 255.194694 
L 774.765356 253.736781 
L 776.288698 252.04662 
L 777.812039 250.087138 
L 779.335381 247.826827 
L 780.858722 245.251161 
L 783.143735 240.839164 
L 786.190418 234.254392 
L 795.330467 213.994146 
L 799.900491 204.535511 
L 804.470516 195.617346 
L 809.040541 187.228744 
L 813.610565 179.354135 
L 818.18059 171.978117 
L 822.750614 165.08645 
L 827.320639 158.666408 
L 831.128993 153.668674 
L 834.937346 148.985554 
L 838.7457 144.612982 
L 842.554054 140.548319 
L 846.362408 136.790713 
L 850.170762 133.341612 
L 853.979115 130.205527 
L 857.787469 127.391213 
L 860.834152 125.381151 
L 863.880835 123.598005 
L 866.927518 122.058742 
L 869.974201 120.788213 
L 872.259214 120.033263 
L 874.544226 119.47207 
L 876.829238 119.135453 
L 879.114251 119.06689 
L 880.637592 119.199777 
L 882.160934 119.503522 
L 883.684275 120.009329 
L 885.207617 120.755942 
L 886.730958 121.78941 
L 888.2543 123.15957 
L 889.777641 124.910087 
L 891.300983 127.059928 
L 892.824324 129.581987 
L 895.109337 133.881524 
L 908.05774 159.520265 
L 912.627764 167.7927 
L 917.197789 175.608818 
L 921.767813 182.985943 
L 926.337838 189.941437 
L 930.907862 196.492055 
L 933.954545 200.642169 
L 933.954545 200.642169 
" style="fill:none;stroke:#348abd;stroke-linecap:square;stroke-width:1.5;"/>
   </g>
   <g id="line2d_33">
    <path clip-path="url(#pc02a6dbbf5)" d="M 173.045455 247.48347 
L 173.807125 243.025676 
L 176.092138 226.564761 
L 177.615479 213.735024 
L 179.138821 197.754108 
L 180.662162 178.827503 
L 185.232187 117.987551 
L 185.993857 110.110459 
L 186.755528 103.640591 
L 187.517199 98.620764 
L 188.27887 94.950245 
L 189.040541 92.431091 
L 189.802211 90.824109 
L 190.563882 89.895709 
L 191.325553 89.445922 
L 192.087224 89.31804 
L 192.848894 89.396104 
L 194.372236 89.861822 
L 196.657248 90.612311 
L 197.418919 90.725865 
L 198.18059 90.710956 
L 198.94226 90.537504 
L 199.703931 90.19407 
L 201.988943 88.694928 
L 202.750614 88.447461 
L 203.512285 88.495898 
L 204.273956 88.815398 
L 205.797297 89.901719 
L 209.605651 93.073192 
L 211.890663 95.328969 
L 213.414005 97.146557 
L 214.937346 99.272881 
L 217.222359 102.951972 
L 220.269042 107.940095 
L 221.792383 110.07731 
L 223.315725 111.885852 
L 224.839066 113.403941 
L 227.124079 115.299942 
L 239.310811 124.35697 
L 240.834152 125.211291 
L 242.357494 125.782065 
L 244.642506 126.219917 
L 246.165848 126.625621 
L 246.927518 127.04402 
L 247.689189 127.709517 
L 248.45086 128.704057 
L 249.212531 130.096403 
L 249.974201 131.905367 
L 253.020885 140.414491 
L 253.782555 141.939212 
L 257.590909 148.330467 
L 262.922604 159.681187 
L 265.207617 164.061027 
L 266.730958 166.325076 
L 269.015971 169.346219 
L 269.777641 170.719123 
L 270.539312 172.489962 
L 271.300983 174.748317 
L 272.062654 177.540771 
L 272.824324 180.871725 
L 274.347666 188.996294 
L 275.871007 198.624365 
L 278.15602 214.64929 
L 281.202703 237.408675 
L 282.726044 249.687468 
L 284.249386 263.671182 
L 285.011057 271.916315 
L 285.772727 281.518681 
L 286.534398 292.92455 
L 288.05774 321.615585 
L 289.581081 352.774101 
L 290.342752 366.102313 
L 291.104423 377.151489 
L 291.866093 386.122503 
L 292.627764 393.442791 
L 293.389435 399.514145 
L 294.151106 404.626143 
L 294.912776 408.962075 
L 295.674447 412.631697 
L 296.436118 415.70037 
L 297.197789 418.211565 
L 297.959459 420.200359 
L 298.72113 421.702137 
L 299.482801 422.755731 
L 300.244472 423.406161 
L 301.006143 423.703636 
L 301.767813 423.701633 
L 302.529484 423.454809 
L 303.291155 423.016008 
L 304.814496 421.750848 
L 307.861179 418.6169 
L 310.907862 415.568344 
L 313.954545 412.839974 
L 317.762899 409.750235 
L 323.856265 405.143093 
L 335.281327 396.828012 
L 345.944717 389.300829 
L 355.084767 383.111988 
L 364.224816 377.193652 
L 375.649877 370.093766 
L 393.929975 358.78716 
L 401.546683 353.779648 
L 407.640049 349.525239 
L 413.733415 344.995085 
L 419.065111 340.776535 
L 424.396806 336.29931 
L 429.728501 331.525632 
L 434.298526 327.116908 
L 438.10688 323.089154 
L 441.153563 319.484105 
L 443.438575 316.430251 
L 445.723587 312.930791 
L 447.246929 310.25673 
L 448.77027 307.222002 
L 450.293612 303.729216 
L 451.816953 299.658095 
L 453.340295 294.863157 
L 454.863636 289.174849 
L 456.386978 282.405993 
L 457.910319 274.364828 
L 459.433661 264.883433 
L 460.957002 253.850074 
L 462.480344 241.250676 
L 464.765356 219.727855 
L 468.57371 180.099395 
L 470.858722 157.325014 
L 472.382064 143.783686 
L 473.905405 131.980585 
L 475.428747 122.049656 
L 476.952088 113.956485 
L 478.47543 107.554486 
L 479.998771 102.641286 
L 481.522113 98.996377 
L 482.283784 97.582311 
L 483.045455 96.406781 
L 483.807125 95.446666 
L 484.568796 94.680046 
L 485.330467 94.087215 
L 486.092138 93.649638 
L 486.853808 93.35055 
L 488.37715 93.10886 
L 489.900491 93.257429 
L 491.423833 93.711834 
L 492.947174 94.404038 
L 495.232187 95.774096 
L 497.517199 97.425328 
L 500.563882 99.906179 
L 505.133907 103.959522 
L 512.750614 111.080232 
L 523.414005 121.347815 
L 531.792383 129.707706 
L 537.885749 136.116643 
L 542.455774 141.251942 
L 546.264128 145.876144 
L 549.310811 149.9078 
L 552.357494 154.359162 
L 554.642506 158.072308 
L 556.927518 162.214766 
L 559.212531 166.920828 
L 560.735872 170.458719 
L 562.259214 174.396817 
L 563.782555 178.821778 
L 565.305897 183.840545 
L 566.829238 189.584792 
L 568.35258 196.215243 
L 569.875921 203.923316 
L 571.399263 212.928681 
L 572.922604 223.466133 
L 574.445946 235.754402 
L 575.969287 249.942584 
L 577.492629 266.029035 
L 579.777641 293.108197 
L 584.347666 348.86222 
L 585.871007 364.585532 
L 587.394349 377.806769 
L 588.91769 388.387253 
L 590.441032 396.475932 
L 591.202703 399.68204 
L 591.964373 402.391727 
L 592.726044 404.653725 
L 593.487715 406.515712 
L 594.249386 408.023342 
L 595.011057 409.218989 
L 595.772727 410.141579 
L 596.534398 410.826065 
L 597.296069 411.304225 
L 598.05774 411.603545 
L 598.81941 411.749014 
L 599.581081 411.762141 
L 601.104423 411.464782 
L 602.627764 410.836219 
L 604.151106 409.971027 
L 606.436118 408.380209 
L 609.482801 405.958983 
L 622.431204 395.356325 
L 628.52457 390.793086 
L 636.141278 385.396054 
L 645.281327 379.193243 
L 655.183047 372.731293 
L 664.323096 367.022373 
L 673.463145 361.58187 
L 682.603194 356.399367 
L 693.266585 350.612425 
L 714.593366 339.125166 
L 719.925061 335.954178 
L 723.733415 333.479612 
L 727.541769 330.736196 
L 730.588452 328.269137 
L 733.635135 325.472635 
L 735.920147 323.096555 
L 738.20516 320.421156 
L 740.490172 317.380592 
L 742.775184 313.897179 
L 745.060197 309.880574 
L 747.345209 305.228078 
L 749.630221 299.824989 
L 751.915233 293.548215 
L 754.200246 286.273971 
L 756.485258 277.886045 
L 758.77027 268.289547 
L 761.055283 257.431464 
L 763.340295 245.321424 
L 765.625307 232.050274 
L 768.67199 212.896898 
L 777.812039 153.624636 
L 780.097052 140.65928 
L 782.382064 129.156827 
L 783.905405 122.397508 
L 785.428747 116.398008 
L 786.952088 111.161058 
L 788.47543 106.669726 
L 789.998771 102.893034 
L 791.522113 99.787005 
L 793.045455 97.300314 
L 794.568796 95.377807 
L 796.092138 93.962095 
L 797.615479 92.996962 
L 799.138821 92.428349 
L 800.662162 92.205754 
L 802.185504 92.283049 
L 803.708845 92.618671 
L 805.232187 93.175822 
L 806.755528 93.922283 
L 809.040541 95.337225 
L 811.325553 97.039667 
L 814.372236 99.656297 
L 817.418919 102.580513 
L 821.227273 106.575182 
L 825.035627 110.891292 
L 828.84398 115.513206 
L 832.652334 120.459502 
L 836.460688 125.771332 
L 840.269042 131.510343 
L 843.315725 136.463314 
L 846.362408 141.796357 
L 849.409091 147.583405 
L 852.455774 153.930462 
L 854.740786 159.150426 
L 857.025799 164.866621 
L 859.310811 171.206804 
L 861.595823 178.33889 
L 863.880835 186.47453 
L 865.404177 192.578389 
L 866.927518 199.318541 
L 868.45086 206.770348 
L 869.974201 214.999404 
L 872.259214 228.885149 
L 874.544226 244.590241 
L 876.829238 261.846076 
L 885.207617 327.561255 
L 887.492629 342.802959 
L 889.015971 351.820724 
L 890.539312 359.883698 
L 892.062654 367.004291 
L 893.585995 373.229612 
L 895.109337 378.626022 
L 896.632678 383.272977 
L 898.15602 387.253223 
L 899.679361 390.649177 
L 901.202703 393.537103 
L 902.726044 395.988653 
L 904.249386 398.065875 
L 905.772727 399.824831 
L 907.296069 401.313388 
L 908.81941 402.572907 
L 911.104423 404.108635 
L 913.389435 405.304778 
L 915.674447 406.237416 
L 917.959459 406.965141 
L 921.006143 407.694047 
L 924.814496 408.325362 
L 929.384521 408.809426 
L 933.954545 409.104528 
L 933.954545 409.104528 
" style="fill:none;stroke:#008000;stroke-linecap:square;stroke-width:1.5;"/>
   </g>
   <g id="line2d_34">
    <path clip-path="url(#pc02a6dbbf5)" d="M 173.045455 235.061265 
L 174.568796 236.516214 
L 175.330467 236.956569 
L 176.092138 237.226115 
L 177.615479 237.433685 
L 179.138821 237.286308 
L 179.900491 237.049163 
L 180.662162 236.683893 
L 182.185504 235.581472 
L 183.708845 234.043798 
L 185.232187 232.021333 
L 186.755528 229.323402 
L 188.27887 225.832756 
L 190.563882 219.551897 
L 192.848894 213.25081 
L 194.372236 209.508553 
L 195.895577 206.19799 
L 197.418919 203.308096 
L 198.94226 200.898578 
L 200.465602 199.074012 
L 202.750614 196.701948 
L 204.273956 194.388972 
L 206.558968 190.744037 
L 208.84398 187.833717 
L 211.128993 184.889911 
L 212.652334 182.583704 
L 214.175676 179.889437 
L 216.460688 175.162989 
L 219.507371 168.586278 
L 221.030713 165.773871 
L 222.554054 163.466356 
L 224.077396 161.623537 
L 225.600737 160.124738 
L 228.64742 157.606643 
L 230.932432 155.662685 
L 232.455774 154.169304 
L 234.740786 151.536332 
L 240.072482 144.88655 
L 241.595823 143.63712 
L 243.119165 142.897639 
L 244.642506 142.382535 
L 245.404177 141.991992 
L 246.165848 141.357989 
L 246.927518 140.382966 
L 247.689189 139.029693 
L 249.212531 135.479065 
L 250.735872 131.873357 
L 251.497543 130.390315 
L 253.020885 128.130215 
L 254.544226 126.4351 
L 256.829238 124.348999 
L 259.114251 122.629329 
L 260.637592 121.68465 
L 261.399263 121.348321 
L 262.160934 121.149755 
L 262.922604 121.111429 
L 263.684275 121.236423 
L 265.207617 121.871481 
L 266.730958 122.640832 
L 267.492629 122.896396 
L 268.2543 122.981736 
L 269.015971 122.860105 
L 269.777641 122.522944 
L 270.539312 121.988767 
L 272.062654 120.503342 
L 274.347666 118.08454 
L 275.109337 117.441786 
L 275.871007 116.951006 
L 276.632678 116.642808 
L 277.394349 116.540673 
L 278.15602 116.661407 
L 278.91769 117.015321 
L 279.679361 117.605991 
L 280.441032 118.429314 
L 281.202703 119.471552 
L 282.726044 122.088077 
L 284.249386 124.970625 
L 285.011057 126.203469 
L 285.772727 127.034289 
L 286.534398 127.232654 
L 287.296069 126.645011 
L 288.05774 125.350255 
L 288.81941 123.749663 
L 289.581081 122.423456 
L 290.342752 121.815431 
L 291.104423 122.047315 
L 291.866093 122.985247 
L 292.627764 124.40275 
L 294.912776 129.733453 
L 297.197789 134.914153 
L 299.482801 139.396587 
L 302.529484 144.620484 
L 307.099509 152.275708 
L 310.907862 159.125659 
L 321.571253 178.699209 
L 325.379607 185.165181 
L 329.187961 191.218016 
L 332.996314 196.845798 
L 336.804668 202.055701 
L 340.613022 206.864521 
L 344.421376 211.294318 
L 348.22973 215.37022 
L 352.038084 219.119212 
L 355.846437 222.569447 
L 359.654791 225.749302 
L 364.224816 229.247832 
L 368.79484 232.444408 
L 373.364865 235.383006 
L 378.69656 238.538912 
L 384.789926 241.854739 
L 391.644963 245.295518 
L 399.261671 248.83851 
L 406.878378 252.126397 
L 413.733415 254.850114 
L 419.826781 257.033531 
L 425.158477 258.708086 
L 429.728501 259.931117 
L 434.298526 260.931793 
L 438.86855 261.690919 
L 442.676904 262.123638 
L 446.485258 262.346107 
L 449.531941 262.330769 
L 452.578624 262.073248 
L 454.863636 261.654238 
L 457.148649 260.964074 
L 458.67199 260.308826 
L 460.195332 259.46159 
L 461.718673 258.389139 
L 463.242015 257.05756 
L 464.765356 255.434199 
L 466.288698 253.492924 
L 467.812039 251.222091 
L 469.335381 248.633433 
L 471.620393 244.245501 
L 474.667076 237.8105 
L 479.998771 226.48675 
L 483.045455 220.511195 
L 486.092138 214.956052 
L 489.900491 208.481608 
L 494.470516 201.168901 
L 500.563882 191.855008 
L 508.18059 180.62092 
L 515.035627 170.85872 
L 521.128993 162.52872 
L 526.460688 155.579343 
L 531.792383 149.006254 
L 536.362408 143.704757 
L 540.932432 138.724837 
L 545.502457 134.064081 
L 550.072482 129.708792 
L 554.642506 125.651494 
L 558.45086 122.526719 
L 561.497543 120.259375 
L 563.782555 118.763375 
L 566.067568 117.531722 
L 567.590909 116.917804 
L 569.114251 116.52723 
L 570.637592 116.422575 
L 572.160934 116.677032 
L 572.922604 116.963774 
L 573.684275 117.370037 
L 574.445946 117.905237 
L 575.969287 119.392391 
L 577.492629 121.461981 
L 579.015971 124.096956 
L 580.539312 127.209121 
L 583.585995 134.193935 
L 585.871007 139.34136 
L 588.15602 143.926614 
L 590.441032 147.886869 
L 592.726044 151.384273 
L 596.534398 156.739247 
L 603.389435 166.348904 
L 611.006143 177.498138 
L 620.907862 191.96754 
L 627.001229 200.471921 
L 632.332924 207.518889 
L 636.902948 213.21658 
L 641.472973 218.574675 
L 646.042998 223.584855 
L 650.613022 228.249607 
L 655.183047 232.579624 
L 659.753071 236.591257 
L 664.323096 240.304445 
L 668.89312 243.740687 
L 673.463145 246.921691 
L 678.79484 250.3379 
L 684.126536 253.464235 
L 689.458231 256.325064 
L 694.789926 258.938267 
L 700.121622 261.314009 
L 705.453317 263.453017 
L 710.785012 265.3448 
L 715.355037 266.750737 
L 719.925061 267.929483 
L 723.733415 268.70885 
L 727.541769 269.268068 
L 730.588452 269.52649 
L 733.635135 269.584152 
L 736.681818 269.402155 
L 738.96683 269.079566 
L 741.251843 268.570376 
L 743.536855 267.845704 
L 745.821867 266.872826 
L 748.10688 265.614535 
L 750.391892 264.030185 
L 752.676904 262.077365 
L 754.961916 259.713301 
L 757.246929 256.90006 
L 759.531941 253.607896 
L 761.816953 249.824066 
L 764.101966 245.558392 
L 766.386978 240.8507 
L 769.433661 234.017946 
L 780.097052 209.294693 
L 782.382064 204.724759 
L 784.667076 200.61075 
L 786.952088 196.971372 
L 789.237101 193.789019 
L 791.522113 191.022064 
L 793.807125 188.611719 
L 796.092138 186.492939 
L 799.138821 184.00844 
L 802.947174 181.252541 
L 816.657248 171.697405 
L 820.465602 168.6385 
L 824.273956 165.272552 
L 828.08231 161.55453 
L 831.128993 158.302563 
L 834.937346 153.869889 
L 838.7457 149.020446 
L 842.554054 143.771972 
L 847.124079 137.040213 
L 856.264128 123.390477 
L 858.54914 120.405066 
L 860.834152 117.856821 
L 862.357494 116.494102 
L 863.880835 115.474838 
L 865.404177 114.868574 
L 866.165848 114.742642 
L 866.927518 114.746733 
L 867.689189 114.889345 
L 868.45086 115.178544 
L 869.212531 115.621583 
L 869.974201 116.224704 
L 870.735872 116.99299 
L 872.259214 119.037296 
L 873.782555 121.758423 
L 875.305897 125.124876 
L 876.829238 129.065658 
L 879.114251 135.798839 
L 885.969287 157.038468 
L 887.492629 161.054118 
L 889.015971 164.620483 
L 890.539312 167.7128 
L 892.062654 170.333004 
L 893.585995 172.504902 
L 895.109337 174.265186 
L 896.632678 175.658709 
L 898.15602 176.732657 
L 899.679361 177.533812 
L 901.202703 178.105582 
L 902.726044 178.487754 
L 905.011057 178.780105 
L 907.296069 178.820623 
L 910.342752 178.611556 
L 914.151106 178.102767 
L 922.529484 176.668014 
L 930.907862 175.326203 
L 933.954545 174.904883 
L 933.954545 174.904883 
" style="fill:none;stroke:#008000;stroke-linecap:square;stroke-width:1.5;"/>
   </g>
   <g id="patch_3">
    <path d="M 135 441 
L 135 60.48 
" style="fill:none;stroke:#ffffff;stroke-linecap:square;stroke-linejoin:miter;"/>
   </g>
   <g id="patch_4">
    <path d="M 972 441 
L 972 60.48 
" style="fill:none;stroke:#ffffff;stroke-linecap:square;stroke-linejoin:miter;"/>
   </g>
   <g id="patch_5">
    <path d="M 135 441 
L 972 441 
" style="fill:none;stroke:#ffffff;stroke-linecap:square;stroke-linejoin:miter;"/>
   </g>
   <g id="patch_6">
    <path d="M 135 60.48 
L 972 60.48 
" style="fill:none;stroke:#ffffff;stroke-linecap:square;stroke-linejoin:miter;"/>
   </g>
   <g id="text_18">
    <!-- nonlinear ODE -->
    <defs>
     <path d="M 63.375 33.296875 
L 63.375 0 
L 45.796875 0 
L 45.796875 5.421875 
L 45.796875 25.484375 
Q 45.796875 32.5625 45.484375 35.25 
Q 45.171875 37.9375 44.390625 39.203125 
Q 43.359375 40.921875 41.59375 41.875 
Q 39.84375 42.828125 37.59375 42.828125 
Q 32.125 42.828125 29 38.59375 
Q 25.875 34.375 25.875 26.90625 
L 25.875 0 
L 8.40625 0 
L 8.40625 54.6875 
L 25.875 54.6875 
L 25.875 46.6875 
Q 29.828125 51.46875 34.265625 53.734375 
Q 38.71875 56 44.09375 56 
Q 53.5625 56 58.46875 50.1875 
Q 63.375 44.390625 63.375 33.296875 
z
" id="DejaVuSans-Bold-110"/>
     <path d="M 34.421875 43.5 
Q 28.609375 43.5 25.5625 39.328125 
Q 22.515625 35.15625 22.515625 27.296875 
Q 22.515625 19.4375 25.5625 15.25 
Q 28.609375 11.078125 34.421875 11.078125 
Q 40.140625 11.078125 43.15625 15.25 
Q 46.1875 19.4375 46.1875 27.296875 
Q 46.1875 35.15625 43.15625 39.328125 
Q 40.140625 43.5 34.421875 43.5 
z
M 34.421875 56 
Q 48.53125 56 56.46875 48.375 
Q 64.40625 40.765625 64.40625 27.296875 
Q 64.40625 13.8125 56.46875 6.1875 
Q 48.53125 -1.421875 34.421875 -1.421875 
Q 20.265625 -1.421875 12.28125 6.1875 
Q 4.296875 13.8125 4.296875 27.296875 
Q 4.296875 40.765625 12.28125 48.375 
Q 20.265625 56 34.421875 56 
z
" id="DejaVuSans-Bold-111"/>
     <path d="M 8.40625 75.984375 
L 25.875 75.984375 
L 25.875 0 
L 8.40625 0 
z
" id="DejaVuSans-Bold-108"/>
     <path d="M 8.40625 54.6875 
L 25.875 54.6875 
L 25.875 0 
L 8.40625 0 
z
M 8.40625 75.984375 
L 25.875 75.984375 
L 25.875 61.71875 
L 8.40625 61.71875 
z
" id="DejaVuSans-Bold-105"/>
     <path d="M 62.984375 27.484375 
L 62.984375 22.515625 
L 22.125 22.515625 
Q 22.75 16.359375 26.5625 13.28125 
Q 30.375 10.203125 37.203125 10.203125 
Q 42.71875 10.203125 48.5 11.84375 
Q 54.296875 13.484375 60.40625 16.796875 
L 60.40625 3.328125 
Q 54.203125 0.984375 48 -0.21875 
Q 41.796875 -1.421875 35.59375 -1.421875 
Q 20.75 -1.421875 12.515625 6.125 
Q 4.296875 13.671875 4.296875 27.296875 
Q 4.296875 40.671875 12.375 48.328125 
Q 20.453125 56 34.625 56 
Q 47.515625 56 55.25 48.234375 
Q 62.984375 40.484375 62.984375 27.484375 
z
M 45.015625 33.296875 
Q 45.015625 38.28125 42.109375 41.328125 
Q 39.203125 44.390625 34.515625 44.390625 
Q 29.4375 44.390625 26.265625 41.53125 
Q 23.09375 38.671875 22.3125 33.296875 
z
" id="DejaVuSans-Bold-101"/>
     <path d="M 32.90625 24.609375 
Q 27.4375 24.609375 24.671875 22.75 
Q 21.921875 20.90625 21.921875 17.28125 
Q 21.921875 13.96875 24.140625 12.078125 
Q 26.375 10.203125 30.328125 10.203125 
Q 35.25 10.203125 38.625 13.734375 
Q 42 17.28125 42 22.609375 
L 42 24.609375 
z
M 59.625 31.203125 
L 59.625 0 
L 42 0 
L 42 8.109375 
Q 38.484375 3.125 34.078125 0.84375 
Q 29.6875 -1.421875 23.390625 -1.421875 
Q 14.890625 -1.421875 9.59375 3.53125 
Q 4.296875 8.5 4.296875 16.40625 
Q 4.296875 26.03125 10.90625 30.515625 
Q 17.53125 35.015625 31.6875 35.015625 
L 42 35.015625 
L 42 36.375 
Q 42 40.53125 38.71875 42.453125 
Q 35.453125 44.390625 28.515625 44.390625 
Q 22.90625 44.390625 18.0625 43.265625 
Q 13.234375 42.140625 9.078125 39.890625 
L 9.078125 53.21875 
Q 14.703125 54.59375 20.359375 55.296875 
Q 26.03125 56 31.6875 56 
Q 46.484375 56 53.046875 50.171875 
Q 59.625 44.34375 59.625 31.203125 
z
" id="DejaVuSans-Bold-97"/>
     <path d="M 49.03125 39.796875 
Q 46.734375 40.875 44.453125 41.375 
Q 42.1875 41.890625 39.890625 41.890625 
Q 33.15625 41.890625 29.515625 37.5625 
Q 25.875 33.25 25.875 25.203125 
L 25.875 0 
L 8.40625 0 
L 8.40625 54.6875 
L 25.875 54.6875 
L 25.875 45.703125 
Q 29.25 51.078125 33.609375 53.53125 
Q 37.984375 56 44.09375 56 
Q 44.96875 56 45.984375 55.921875 
Q 47.015625 55.859375 48.96875 55.609375 
z
" id="DejaVuSans-Bold-114"/>
     <path id="DejaVuSans-Bold-32"/>
     <path d="M 42.484375 60.59375 
Q 33.890625 60.59375 29.15625 54.25 
Q 24.421875 47.90625 24.421875 36.375 
Q 24.421875 24.90625 29.15625 18.546875 
Q 33.890625 12.203125 42.484375 12.203125 
Q 51.125 12.203125 55.859375 18.546875 
Q 60.59375 24.90625 60.59375 36.375 
Q 60.59375 47.90625 55.859375 54.25 
Q 51.125 60.59375 42.484375 60.59375 
z
M 42.484375 74.21875 
Q 60.0625 74.21875 70.015625 64.15625 
Q 79.984375 54.109375 79.984375 36.375 
Q 79.984375 18.703125 70.015625 8.640625 
Q 60.0625 -1.421875 42.484375 -1.421875 
Q 24.953125 -1.421875 14.96875 8.640625 
Q 4.984375 18.703125 4.984375 36.375 
Q 4.984375 54.109375 14.96875 64.15625 
Q 24.953125 74.21875 42.484375 74.21875 
z
" id="DejaVuSans-Bold-79"/>
     <path d="M 27.984375 58.6875 
L 27.984375 14.203125 
L 34.71875 14.203125 
Q 46.234375 14.203125 52.3125 19.921875 
Q 58.40625 25.640625 58.40625 36.53125 
Q 58.40625 47.359375 52.34375 53.015625 
Q 46.296875 58.6875 34.71875 58.6875 
z
M 9.1875 72.90625 
L 29 72.90625 
Q 45.609375 72.90625 53.734375 70.53125 
Q 61.859375 68.171875 67.671875 62.5 
Q 72.796875 57.5625 75.28125 51.109375 
Q 77.78125 44.671875 77.78125 36.53125 
Q 77.78125 28.265625 75.28125 21.796875 
Q 72.796875 15.328125 67.671875 10.40625 
Q 61.8125 4.734375 53.609375 2.359375 
Q 45.40625 0 29 0 
L 9.1875 0 
z
" id="DejaVuSans-Bold-68"/>
     <path d="M 9.1875 72.90625 
L 59.90625 72.90625 
L 59.90625 58.6875 
L 27.984375 58.6875 
L 27.984375 45.125 
L 58.015625 45.125 
L 58.015625 30.90625 
L 27.984375 30.90625 
L 27.984375 14.203125 
L 60.984375 14.203125 
L 60.984375 0 
L 9.1875 0 
z
" id="DejaVuSans-Bold-69"/>
    </defs>
    <g transform="translate(480.905156 54.48)scale(0.18 -0.18)">
     <use xlink:href="#DejaVuSans-Bold-110"/>
     <use x="71.191406" xlink:href="#DejaVuSans-Bold-111"/>
     <use x="139.892578" xlink:href="#DejaVuSans-Bold-110"/>
     <use x="211.083984" xlink:href="#DejaVuSans-Bold-108"/>
     <use x="245.361328" xlink:href="#DejaVuSans-Bold-105"/>
     <use x="279.638672" xlink:href="#DejaVuSans-Bold-110"/>
     <use x="350.830078" xlink:href="#DejaVuSans-Bold-101"/>
     <use x="418.652344" xlink:href="#DejaVuSans-Bold-97"/>
     <use x="486.132812" xlink:href="#DejaVuSans-Bold-114"/>
     <use x="535.449219" xlink:href="#DejaVuSans-Bold-32"/>
     <use x="570.263672" xlink:href="#DejaVuSans-Bold-79"/>
     <use x="655.273438" xlink:href="#DejaVuSans-Bold-68"/>
     <use x="738.28125" xlink:href="#DejaVuSans-Bold-69"/>
    </g>
   </g>
   <g id="legend_1">
    <g id="patch_7">
     <path d="M 807.200625 296.574375 
L 963.6 296.574375 
Q 966 296.574375 966 294.174375 
L 966 207.305625 
Q 966 204.905625 963.6 204.905625 
L 807.200625 204.905625 
Q 804.800625 204.905625 804.800625 207.305625 
L 804.800625 294.174375 
Q 804.800625 296.574375 807.200625 296.574375 
z
" style="fill:#e5e5e5;opacity:0.8;stroke:#cccccc;stroke-linejoin:miter;stroke-width:0.5;"/>
    </g>
    <g id="line2d_35">
     <path d="M 809.600625 214.62375 
L 833.600625 214.62375 
" style="fill:none;stroke:#e24a33;stroke-linecap:square;stroke-width:1.5;"/>
    </g>
    <g id="line2d_36"/>
    <g id="text_19">
     <!-- Numerical -->
     <defs>
      <path d="M 9.8125 72.90625 
L 23.09375 72.90625 
L 55.421875 11.921875 
L 55.421875 72.90625 
L 64.984375 72.90625 
L 64.984375 0 
L 51.703125 0 
L 19.390625 60.984375 
L 19.390625 0 
L 9.8125 0 
z
" id="DejaVuSans-78"/>
      <path d="M 41.109375 46.296875 
Q 39.59375 47.171875 37.8125 47.578125 
Q 36.03125 48 33.890625 48 
Q 26.265625 48 22.1875 43.046875 
Q 18.109375 38.09375 18.109375 28.8125 
L 18.109375 0 
L 9.078125 0 
L 9.078125 54.6875 
L 18.109375 54.6875 
L 18.109375 46.1875 
Q 20.953125 51.171875 25.484375 53.578125 
Q 30.03125 56 36.53125 56 
Q 37.453125 56 38.578125 55.875 
Q 39.703125 55.765625 41.0625 55.515625 
z
" id="DejaVuSans-114"/>
      <path d="M 48.78125 52.59375 
L 48.78125 44.1875 
Q 44.96875 46.296875 41.140625 47.34375 
Q 37.3125 48.390625 33.40625 48.390625 
Q 24.65625 48.390625 19.8125 42.84375 
Q 14.984375 37.3125 14.984375 27.296875 
Q 14.984375 17.28125 19.8125 11.734375 
Q 24.65625 6.203125 33.40625 6.203125 
Q 37.3125 6.203125 41.140625 7.25 
Q 44.96875 8.296875 48.78125 10.40625 
L 48.78125 2.09375 
Q 45.015625 0.34375 40.984375 -0.53125 
Q 36.96875 -1.421875 32.421875 -1.421875 
Q 20.0625 -1.421875 12.78125 6.34375 
Q 5.515625 14.109375 5.515625 27.296875 
Q 5.515625 40.671875 12.859375 48.328125 
Q 20.21875 56 33.015625 56 
Q 37.15625 56 41.109375 55.140625 
Q 45.0625 54.296875 48.78125 52.59375 
z
" id="DejaVuSans-99"/>
      <path d="M 34.28125 27.484375 
Q 23.390625 27.484375 19.1875 25 
Q 14.984375 22.515625 14.984375 16.5 
Q 14.984375 11.71875 18.140625 8.90625 
Q 21.296875 6.109375 26.703125 6.109375 
Q 34.1875 6.109375 38.703125 11.40625 
Q 43.21875 16.703125 43.21875 25.484375 
L 43.21875 27.484375 
z
M 52.203125 31.203125 
L 52.203125 0 
L 43.21875 0 
L 43.21875 8.296875 
Q 40.140625 3.328125 35.546875 0.953125 
Q 30.953125 -1.421875 24.3125 -1.421875 
Q 15.921875 -1.421875 10.953125 3.296875 
Q 6 8.015625 6 15.921875 
Q 6 25.140625 12.171875 29.828125 
Q 18.359375 34.515625 30.609375 34.515625 
L 43.21875 34.515625 
L 43.21875 35.40625 
Q 43.21875 41.609375 39.140625 45 
Q 35.0625 48.390625 27.6875 48.390625 
Q 23 48.390625 18.546875 47.265625 
Q 14.109375 46.140625 10.015625 43.890625 
L 10.015625 52.203125 
Q 14.9375 54.109375 19.578125 55.046875 
Q 24.21875 56 28.609375 56 
Q 40.484375 56 46.34375 49.84375 
Q 52.203125 43.703125 52.203125 31.203125 
z
" id="DejaVuSans-97"/>
      <path d="M 9.421875 75.984375 
L 18.40625 75.984375 
L 18.40625 0 
L 9.421875 0 
z
" id="DejaVuSans-108"/>
     </defs>
     <g transform="translate(843.200625 218.82375)scale(0.12 -0.12)">
      <use xlink:href="#DejaVuSans-78"/>
      <use x="74.804688" xlink:href="#DejaVuSans-117"/>
      <use x="138.183594" xlink:href="#DejaVuSans-109"/>
      <use x="235.595703" xlink:href="#DejaVuSans-101"/>
      <use x="297.119141" xlink:href="#DejaVuSans-114"/>
      <use x="338.232422" xlink:href="#DejaVuSans-105"/>
      <use x="366.015625" xlink:href="#DejaVuSans-99"/>
      <use x="420.996094" xlink:href="#DejaVuSans-97"/>
      <use x="482.275391" xlink:href="#DejaVuSans-108"/>
     </g>
    </g>
    <g id="line2d_37">
     <path d="M 809.600625 232.2375 
L 833.600625 232.2375 
" style="fill:none;stroke:#348abd;stroke-linecap:square;stroke-width:1.5;"/>
    </g>
    <g id="line2d_38"/>
    <g id="text_20">
     <!-- Numerical -->
     <g transform="translate(843.200625 236.4375)scale(0.12 -0.12)">
      <use xlink:href="#DejaVuSans-78"/>
      <use x="74.804688" xlink:href="#DejaVuSans-117"/>
      <use x="138.183594" xlink:href="#DejaVuSans-109"/>
      <use x="235.595703" xlink:href="#DejaVuSans-101"/>
      <use x="297.119141" xlink:href="#DejaVuSans-114"/>
      <use x="338.232422" xlink:href="#DejaVuSans-105"/>
      <use x="366.015625" xlink:href="#DejaVuSans-99"/>
      <use x="420.996094" xlink:href="#DejaVuSans-97"/>
      <use x="482.275391" xlink:href="#DejaVuSans-108"/>
     </g>
    </g>
    <g id="line2d_39">
     <path d="M 809.600625 249.85125 
L 833.600625 249.85125 
" style="fill:none;stroke:#008000;stroke-linecap:square;stroke-width:1.5;"/>
    </g>
    <g id="line2d_40"/>
    <g id="text_21">
     <!-- BPINN -->
     <defs>
      <path d="M 19.671875 34.8125 
L 19.671875 8.109375 
L 35.5 8.109375 
Q 43.453125 8.109375 47.28125 11.40625 
Q 51.125 14.703125 51.125 21.484375 
Q 51.125 28.328125 47.28125 31.5625 
Q 43.453125 34.8125 35.5 34.8125 
z
M 19.671875 64.796875 
L 19.671875 42.828125 
L 34.28125 42.828125 
Q 41.5 42.828125 45.03125 45.53125 
Q 48.578125 48.25 48.578125 53.8125 
Q 48.578125 59.328125 45.03125 62.0625 
Q 41.5 64.796875 34.28125 64.796875 
z
M 9.8125 72.90625 
L 35.015625 72.90625 
Q 46.296875 72.90625 52.390625 68.21875 
Q 58.5 63.53125 58.5 54.890625 
Q 58.5 48.1875 55.375 44.234375 
Q 52.25 40.28125 46.1875 39.3125 
Q 53.46875 37.75 57.5 32.78125 
Q 61.53125 27.828125 61.53125 20.40625 
Q 61.53125 10.640625 54.890625 5.3125 
Q 48.25 0 35.984375 0 
L 9.8125 0 
z
" id="DejaVuSans-66"/>
      <path d="M 19.671875 64.796875 
L 19.671875 37.40625 
L 32.078125 37.40625 
Q 38.96875 37.40625 42.71875 40.96875 
Q 46.484375 44.53125 46.484375 51.125 
Q 46.484375 57.671875 42.71875 61.234375 
Q 38.96875 64.796875 32.078125 64.796875 
z
M 9.8125 72.90625 
L 32.078125 72.90625 
Q 44.34375 72.90625 50.609375 67.359375 
Q 56.890625 61.8125 56.890625 51.125 
Q 56.890625 40.328125 50.609375 34.8125 
Q 44.34375 29.296875 32.078125 29.296875 
L 19.671875 29.296875 
L 19.671875 0 
L 9.8125 0 
z
" id="DejaVuSans-80"/>
      <path d="M 9.8125 72.90625 
L 19.671875 72.90625 
L 19.671875 0 
L 9.8125 0 
z
" id="DejaVuSans-73"/>
     </defs>
     <g transform="translate(843.200625 254.05125)scale(0.12 -0.12)">
      <use xlink:href="#DejaVuSans-66"/>
      <use x="68.603516" xlink:href="#DejaVuSans-80"/>
      <use x="128.90625" xlink:href="#DejaVuSans-73"/>
      <use x="158.398438" xlink:href="#DejaVuSans-78"/>
      <use x="233.203125" xlink:href="#DejaVuSans-78"/>
     </g>
    </g>
    <g id="line2d_41">
     <path d="M 809.600625 267.465 
L 833.600625 267.465 
" style="fill:none;stroke:#008000;stroke-linecap:square;stroke-width:1.5;"/>
    </g>
    <g id="line2d_42"/>
    <g id="text_22">
     <!-- BPINN -->
     <g transform="translate(843.200625 271.665)scale(0.12 -0.12)">
      <use xlink:href="#DejaVuSans-66"/>
      <use x="68.603516" xlink:href="#DejaVuSans-80"/>
      <use x="128.90625" xlink:href="#DejaVuSans-73"/>
      <use x="158.398438" xlink:href="#DejaVuSans-78"/>
      <use x="233.203125" xlink:href="#DejaVuSans-78"/>
     </g>
    </g>
    <g id="PathCollection_2">
     <g>
      <use style="fill:#ff0000;stroke:#ff0000;stroke-width:0.5;" x="821.600625" xlink:href="#m4a92e69167" y="286.12875"/>
     </g>
    </g>
    <g id="text_23">
     <!-- training data points -->
     <defs>
      <path d="M 54.890625 33.015625 
L 54.890625 0 
L 45.90625 0 
L 45.90625 32.71875 
Q 45.90625 40.484375 42.875 44.328125 
Q 39.84375 48.1875 33.796875 48.1875 
Q 26.515625 48.1875 22.3125 43.546875 
Q 18.109375 38.921875 18.109375 30.90625 
L 18.109375 0 
L 9.078125 0 
L 9.078125 54.6875 
L 18.109375 54.6875 
L 18.109375 46.1875 
Q 21.34375 51.125 25.703125 53.5625 
Q 30.078125 56 35.796875 56 
Q 45.21875 56 50.046875 50.171875 
Q 54.890625 44.34375 54.890625 33.015625 
z
" id="DejaVuSans-110"/>
      <path d="M 45.40625 27.984375 
Q 45.40625 37.75 41.375 43.109375 
Q 37.359375 48.484375 30.078125 48.484375 
Q 22.859375 48.484375 18.828125 43.109375 
Q 14.796875 37.75 14.796875 27.984375 
Q 14.796875 18.265625 18.828125 12.890625 
Q 22.859375 7.515625 30.078125 7.515625 
Q 37.359375 7.515625 41.375 12.890625 
Q 45.40625 18.265625 45.40625 27.984375 
z
M 54.390625 6.78125 
Q 54.390625 -7.171875 48.1875 -13.984375 
Q 42 -20.796875 29.203125 -20.796875 
Q 24.46875 -20.796875 20.265625 -20.09375 
Q 16.0625 -19.390625 12.109375 -17.921875 
L 12.109375 -9.1875 
Q 16.0625 -11.328125 19.921875 -12.34375 
Q 23.78125 -13.375 27.78125 -13.375 
Q 36.625 -13.375 41.015625 -8.765625 
Q 45.40625 -4.15625 45.40625 5.171875 
L 45.40625 9.625 
Q 42.625 4.78125 38.28125 2.390625 
Q 33.9375 0 27.875 0 
Q 17.828125 0 11.671875 7.65625 
Q 5.515625 15.328125 5.515625 27.984375 
Q 5.515625 40.671875 11.671875 48.328125 
Q 17.828125 56 27.875 56 
Q 33.9375 56 38.28125 53.609375 
Q 42.625 51.21875 45.40625 46.390625 
L 45.40625 54.6875 
L 54.390625 54.6875 
z
" id="DejaVuSans-103"/>
      <path id="DejaVuSans-32"/>
      <path d="M 45.40625 46.390625 
L 45.40625 75.984375 
L 54.390625 75.984375 
L 54.390625 0 
L 45.40625 0 
L 45.40625 8.203125 
Q 42.578125 3.328125 38.25 0.953125 
Q 33.9375 -1.421875 27.875 -1.421875 
Q 17.96875 -1.421875 11.734375 6.484375 
Q 5.515625 14.40625 5.515625 27.296875 
Q 5.515625 40.1875 11.734375 48.09375 
Q 17.96875 56 27.875 56 
Q 33.9375 56 38.25 53.625 
Q 42.578125 51.265625 45.40625 46.390625 
z
M 14.796875 27.296875 
Q 14.796875 17.390625 18.875 11.75 
Q 22.953125 6.109375 30.078125 6.109375 
Q 37.203125 6.109375 41.296875 11.75 
Q 45.40625 17.390625 45.40625 27.296875 
Q 45.40625 37.203125 41.296875 42.84375 
Q 37.203125 48.484375 30.078125 48.484375 
Q 22.953125 48.484375 18.875 42.84375 
Q 14.796875 37.203125 14.796875 27.296875 
z
" id="DejaVuSans-100"/>
      <path d="M 18.109375 8.203125 
L 18.109375 -20.796875 
L 9.078125 -20.796875 
L 9.078125 54.6875 
L 18.109375 54.6875 
L 18.109375 46.390625 
Q 20.953125 51.265625 25.265625 53.625 
Q 29.59375 56 35.59375 56 
Q 45.5625 56 51.78125 48.09375 
Q 58.015625 40.1875 58.015625 27.296875 
Q 58.015625 14.40625 51.78125 6.484375 
Q 45.5625 -1.421875 35.59375 -1.421875 
Q 29.59375 -1.421875 25.265625 0.953125 
Q 20.953125 3.328125 18.109375 8.203125 
z
M 48.6875 27.296875 
Q 48.6875 37.203125 44.609375 42.84375 
Q 40.53125 48.484375 33.40625 48.484375 
Q 26.265625 48.484375 22.1875 42.84375 
Q 18.109375 37.203125 18.109375 27.296875 
Q 18.109375 17.390625 22.1875 11.75 
Q 26.265625 6.109375 33.40625 6.109375 
Q 40.53125 6.109375 44.609375 11.75 
Q 48.6875 17.390625 48.6875 27.296875 
z
" id="DejaVuSans-112"/>
      <path d="M 30.609375 48.390625 
Q 23.390625 48.390625 19.1875 42.75 
Q 14.984375 37.109375 14.984375 27.296875 
Q 14.984375 17.484375 19.15625 11.84375 
Q 23.34375 6.203125 30.609375 6.203125 
Q 37.796875 6.203125 41.984375 11.859375 
Q 46.1875 17.53125 46.1875 27.296875 
Q 46.1875 37.015625 41.984375 42.703125 
Q 37.796875 48.390625 30.609375 48.390625 
z
M 30.609375 56 
Q 42.328125 56 49.015625 48.375 
Q 55.71875 40.765625 55.71875 27.296875 
Q 55.71875 13.875 49.015625 6.21875 
Q 42.328125 -1.421875 30.609375 -1.421875 
Q 18.84375 -1.421875 12.171875 6.21875 
Q 5.515625 13.875 5.515625 27.296875 
Q 5.515625 40.765625 12.171875 48.375 
Q 18.84375 56 30.609375 56 
z
" id="DejaVuSans-111"/>
      <path d="M 44.28125 53.078125 
L 44.28125 44.578125 
Q 40.484375 46.53125 36.375 47.5 
Q 32.28125 48.484375 27.875 48.484375 
Q 21.1875 48.484375 17.84375 46.4375 
Q 14.5 44.390625 14.5 40.28125 
Q 14.5 37.15625 16.890625 35.375 
Q 19.28125 33.59375 26.515625 31.984375 
L 29.59375 31.296875 
Q 39.15625 29.25 43.1875 25.515625 
Q 47.21875 21.78125 47.21875 15.09375 
Q 47.21875 7.46875 41.1875 3.015625 
Q 35.15625 -1.421875 24.609375 -1.421875 
Q 20.21875 -1.421875 15.453125 -0.5625 
Q 10.6875 0.296875 5.421875 2 
L 5.421875 11.28125 
Q 10.40625 8.6875 15.234375 7.390625 
Q 20.0625 6.109375 24.8125 6.109375 
Q 31.15625 6.109375 34.5625 8.28125 
Q 37.984375 10.453125 37.984375 14.40625 
Q 37.984375 18.0625 35.515625 20.015625 
Q 33.0625 21.96875 24.703125 23.78125 
L 21.578125 24.515625 
Q 13.234375 26.265625 9.515625 29.90625 
Q 5.8125 33.546875 5.8125 39.890625 
Q 5.8125 47.609375 11.28125 51.796875 
Q 16.75 56 26.8125 56 
Q 31.78125 56 36.171875 55.265625 
Q 40.578125 54.546875 44.28125 53.078125 
z
" id="DejaVuSans-115"/>
     </defs>
     <g transform="translate(843.200625 289.27875)scale(0.12 -0.12)">
      <use xlink:href="#DejaVuSans-116"/>
      <use x="39.208984" xlink:href="#DejaVuSans-114"/>
      <use x="80.322266" xlink:href="#DejaVuSans-97"/>
      <use x="141.601562" xlink:href="#DejaVuSans-105"/>
      <use x="169.384766" xlink:href="#DejaVuSans-110"/>
      <use x="232.763672" xlink:href="#DejaVuSans-105"/>
      <use x="260.546875" xlink:href="#DejaVuSans-110"/>
      <use x="323.925781" xlink:href="#DejaVuSans-103"/>
      <use x="387.402344" xlink:href="#DejaVuSans-32"/>
      <use x="419.189453" xlink:href="#DejaVuSans-100"/>
      <use x="482.666016" xlink:href="#DejaVuSans-97"/>
      <use x="543.945312" xlink:href="#DejaVuSans-116"/>
      <use x="583.154297" xlink:href="#DejaVuSans-97"/>
      <use x="644.433594" xlink:href="#DejaVuSans-32"/>
      <use x="676.220703" xlink:href="#DejaVuSans-112"/>
      <use x="739.697266" xlink:href="#DejaVuSans-111"/>
      <use x="800.878906" xlink:href="#DejaVuSans-105"/>
      <use x="828.662109" xlink:href="#DejaVuSans-110"/>
      <use x="892.041016" xlink:href="#DejaVuSans-116"/>
      <use x="931.25" xlink:href="#DejaVuSans-115"/>
     </g>
    </g>
   </g>
  </g>
 </g>
 <defs>
  <clipPath id="pc02a6dbbf5">
   <rect height="380.52" width="837" x="135" y="60.48"/>
  </clipPath>
 </defs>
</svg>
